<svg display="none" xmlns="http://www.w3.org/2000/svg">
    <symbol id="icon-search" viewBox="0 0 20 20">
        <g clip-path="url(#clip0_151_3302)">
        <path d="M8.80758 0C3.95121 0 0 3.95121 0 8.80758C0 13.6642 3.95121 17.6152 8.80758 17.6152C13.6642 17.6152 17.6152 13.6642 17.6152 8.80758C17.6152 3.95121 13.6642 0 8.80758 0ZM8.80758 15.9892C4.8477 15.9892 1.62602 12.7675 1.62602 8.80762C1.62602 4.84773 4.8477 1.62602 8.80758 1.62602C12.7675 1.62602 15.9891 4.8477 15.9891 8.80758C15.9891 12.7675 12.7675 15.9892 8.80758 15.9892Z" fill="#BB9B75"/>
        <path d="M19.762 18.6124L15.1007 13.9511C14.7831 13.6335 14.2687 13.6335 13.9511 13.9511C13.6335 14.2684 13.6335 14.7834 13.9511 15.1007L18.6124 19.762C18.7711 19.9208 18.979 20.0002 19.1872 20.0002C19.395 20.0002 19.6031 19.9208 19.762 19.762C20.0796 19.4446 20.0796 18.9297 19.762 18.6124Z" fill="#BB9B75"/>
        </g>
        <defs>
            <clipPath id="clip0_151_3302">
                <rect width="20" height="20" fill="white"/>
            </clipPath>
        </defs>
    </symbol>
    <symbol id ="icon-email" viewBox="0 0 26 26" >
        <path d="M16.8472 14.0801L14.6697 16.265C13.7866 17.1511 12.2329 17.1702 11.3308 16.265L9.15316 14.0801L1.33203 21.9266C1.62316 22.0612 1.94415 22.1416 2.2854 22.1416H23.7151C24.0563 22.1416 24.3772 22.0613 24.6682 21.9266L16.8472 14.0801Z" fill="#BB9B75"/>
        <path d="M23.715 3.85938H2.2853C1.94405 3.85938 1.62306 3.93971 1.33203 4.07433L9.68946 12.4595C9.69002 12.46 9.69068 12.4601 9.69123 12.4607C9.69179 12.4613 9.69189 12.462 9.69189 12.462L12.4094 15.1885C12.698 15.4771 13.3024 15.4771 13.591 15.1885L16.3079 12.4625C16.3079 12.4625 16.3086 12.4613 16.3091 12.4607C16.3091 12.4607 16.3104 12.46 16.3109 12.4595L24.6681 4.07428C24.3771 3.93961 24.0562 3.85938 23.715 3.85938Z" fill="#BB9B75"/>
        <path d="M0.243039 5.14062C0.0924219 5.44521 0 5.78331 0 6.14548V19.8564C0 20.2186 0.0923203 20.5567 0.242988 20.8613L8.07767 13.0012L0.243039 5.14062Z" fill="#BB9B75"/>
        <path d="M25.7565 5.13867L17.9219 12.9994L25.7565 20.8595C25.9071 20.5549 25.9995 20.2168 25.9995 19.8546V6.14363C25.9995 5.78136 25.9071 5.44326 25.7565 5.13867Z" fill="#BB9B75"/>
    </symbol>
    <symbol id ="icon-telegram-blue" viewBox="0 0 26 22" >
        <path d="M10.2019 14.4459L9.77186 20.4952C10.3872 20.4952 10.6537 20.2309 10.9733 19.9135L13.8582 17.1564L19.836 21.5341C20.9324 22.1451 21.7048 21.8234 22.0005 20.5255L25.9244 2.13921L25.9254 2.13812C26.2732 0.517455 25.3394 -0.116295 24.2712 0.281288L1.20703 9.11154C-0.367057 9.72254 -0.343224 10.6 0.939443 10.9976L6.83603 12.8317L20.5326 4.26146C21.1772 3.83462 21.7633 4.07079 21.2812 4.49762L10.2019 14.4459Z" fill="#039BE5"/>
    </symbol>

    <symbol id="icon-more-items"  viewBox="0 0 29 29">
        <path d="M8.67435 12.0225C10.5235 12.0225 12.0225 10.5235 12.0225 8.67435C12.0225 6.8252 10.5235 5.32617 8.67435 5.32617C6.8252 5.32617 5.32617 6.8252 5.32617 8.67435C5.32617 10.5235 6.8252 12.0225 8.67435 12.0225Z" fill="white"/>
        <path d="M8.67435 23.6749C10.5235 23.6749 12.0225 22.1758 12.0225 20.3267C12.0225 18.4775 10.5235 16.9785 8.67435 16.9785C6.8252 16.9785 5.32617 18.4775 5.32617 20.3267C5.32617 22.1758 6.8252 23.6749 8.67435 23.6749Z" fill="white"/>
        <path d="M20.3267 12.0225C22.1758 12.0225 23.6749 10.5235 23.6749 8.67435C23.6749 6.8252 22.1758 5.32617 20.3267 5.32617C18.4775 5.32617 16.9785 6.8252 16.9785 8.67435C16.9785 10.5235 18.4775 12.0225 20.3267 12.0225Z" fill="white"/>
        <path d="M20.3267 23.6749C22.1758 23.6749 23.6749 22.1758 23.6749 20.3267C23.6749 18.4775 22.1758 16.9785 20.3267 16.9785C18.4775 16.9785 16.9785 18.4775 16.9785 20.3267C16.9785 22.1758 18.4775 23.6749 20.3267 23.6749Z" fill="white"/>
    </symbol>

    <symbol id="icon-user" viewBox="0 0 23 23">
        <path d="M19.6318 14.8682C18.3792 13.6157 16.8883 12.6885 15.2617 12.1272C17.0039 10.9273 18.1484 8.91915 18.1484 6.64844C18.1484 2.9825 15.1659 0 11.5 0C7.83406 0 4.85156 2.9825 4.85156 6.64844C4.85156 8.91915 5.99613 10.9273 7.73833 12.1272C6.11171 12.6885 4.62084 13.6157 3.36829 14.8682C1.19622 17.0403 0 19.9282 0 23H1.79688C1.79688 17.6497 6.14967 13.2969 11.5 13.2969C16.8503 13.2969 21.2031 17.6497 21.2031 23H23C23 19.9282 21.8038 17.0403 19.6318 14.8682ZM11.5 11.5C8.82486 11.5 6.64844 9.32362 6.64844 6.64844C6.64844 3.97325 8.82486 1.79688 11.5 1.79688C14.1751 1.79688 16.3516 3.97325 16.3516 6.64844C16.3516 9.32362 14.1751 11.5 11.5 11.5Z"/>
    </symbol>

    <symbol id="icon-favorite" viewBox="0 0 26 24">    
        <path d="M13 23.5535C12.6298 23.5535 12.273 23.4194 11.9949 23.1758C10.9445 22.2574 9.93188 21.3943 9.03845 20.633L9.03389 20.629C6.41449 18.3969 4.15255 16.4691 2.57873 14.5702C0.819441 12.4473 0 10.4345 0 8.23564C0 6.09926 0.732558 4.12831 2.06259 2.68561C3.40849 1.22585 5.25525 0.421875 7.26329 0.421875C8.76411 0.421875 10.1386 0.896362 11.3484 1.83205C11.959 2.30435 12.5124 2.88239 13 3.55663C13.4878 2.88239 14.041 2.30435 14.6518 1.83205C15.8616 0.896362 17.236 0.421875 18.7369 0.421875C20.7447 0.421875 22.5917 1.22585 23.9376 2.68561C25.2676 4.12831 26 6.09926 26 8.23564C26 10.4345 25.1807 12.4473 23.4214 14.57C21.8476 16.4691 19.5859 18.3967 16.9669 20.6286C16.0718 21.3912 15.0576 22.2556 14.0049 23.1762C13.727 23.4194 13.3699 23.5535 13 23.5535ZM7.26329 1.94492C5.6857 1.94492 4.23646 2.57452 3.18215 3.7179C2.11218 4.87852 1.52284 6.48289 1.52284 8.23564C1.52284 10.085 2.21017 11.739 3.75126 13.5984C5.24077 15.3958 7.4563 17.2838 10.0215 19.47L10.0263 19.474C10.9231 20.2383 11.9397 21.1047 12.9978 22.0299C14.0622 21.1029 15.0804 20.2351 15.979 19.4696C18.544 17.2834 20.7594 15.3958 22.2489 13.5984C23.7898 11.739 24.4771 10.085 24.4771 8.23564C24.4771 6.48289 23.8878 4.87852 22.8178 3.7179C21.7637 2.57452 20.3142 1.94492 18.7369 1.94492C17.5812 1.94492 16.5201 2.31229 15.5833 3.03671C14.7484 3.68259 14.1668 4.49905 13.8258 5.07034C13.6504 5.36412 13.3418 5.53947 13 5.53947C12.6582 5.53947 12.3495 5.36412 12.1742 5.07034C11.8334 4.49905 11.2518 3.68259 10.4167 3.03671C9.47981 2.31229 8.41876 1.94492 7.26329 1.94492Z"/>
    </symbol>

    <symbol id="icon-favorite-default" viewBox="0 0 110 110">
       <path  d="M54.9991 15C24.9991 -25 -45.0009 45 54.9991 105C154.999 45 84.9991 -25 54.9991 15Z" />
    </symbol>

    <symbol id = "icon-comparison" viewBox="0 0 20 18">
        <path d="M17.6471 16.0598H19.4118C19.7366 16.0598 20 16.3231 20 16.648C20 16.9729 19.7366 17.2362 19.4118 17.2362H0.588242C0.263359 17.2362 0 16.9729 0 16.648C0 16.3231 0.263359 16.0598 0.588242 16.0598H2.35293V6.05977C2.35293 5.73488 2.61629 5.47152 2.94117 5.47152H8.23527C8.56016 5.47152 8.82352 5.73488 8.82352 6.05977V16.0598H11.1764V1.35387C11.1764 1.02898 11.4398 0.765625 11.7647 0.765625H17.0588C17.3837 0.765625 17.647 1.02898 17.647 1.35387V16.0598H17.6471ZM3.52941 6.64801V16.0598H7.64707V6.64801H3.52941ZM12.3529 1.94211V16.0598H16.4706V1.94211H12.3529Z"/>
    </symbol>

    <symbol id = "icon-comparison-default" viewBox="0 0 26 25">
        <path d="M4 16V8h6v16H4zM15 22V2h6v22h-6z" stroke-width="1.5"/>
        <line x1="1" y1="24" x2="25" y2="24" stroke-width="2"/>   
    </symbol>

    <symbol id = "icon-cart" viewBox="0 0 26 26" >
        <path d="M8.37692 16.8088H8.37811C8.37911 16.8088 8.3801 16.8086 8.38109 16.8086H22.1914C22.5314 16.8086 22.8303 16.5831 22.9238 16.2561L25.9706 5.59209C26.0363 5.36218 25.9903 5.11502 25.8465 4.92419C25.7025 4.73337 25.4773 4.62109 25.2383 4.62109H6.62021L6.0757 2.1707C5.99814 1.82217 5.68909 1.57422 5.33203 1.57422H0.761719C0.340988 1.57422 0 1.91521 0 2.33594C0 2.75667 0.340988 3.09766 0.761719 3.09766H4.72107C4.81747 3.53188 7.32678 14.824 7.47119 15.4736C6.66167 15.8255 6.09375 16.6326 6.09375 17.5703C6.09375 18.8303 7.1189 19.8555 8.37891 19.8555H22.1914C22.6121 19.8555 22.9531 19.5145 22.9531 19.0938C22.9531 18.673 22.6121 18.332 22.1914 18.332H8.37891C7.95897 18.332 7.61719 17.9902 7.61719 17.5703C7.61719 17.151 7.95778 16.8098 8.37692 16.8088ZM24.2284 6.14453L21.6167 15.2852H8.98987L6.95862 6.14453H24.2284Z"/>
        <path d="M7.61719 22.1406C7.61719 23.4006 8.64233 24.4258 9.90234 24.4258C11.1624 24.4258 12.1875 23.4006 12.1875 22.1406C12.1875 20.8806 11.1624 19.8555 9.90234 19.8555C8.64233 19.8555 7.61719 20.8806 7.61719 22.1406ZM9.90234 21.3789C10.3223 21.3789 10.6641 21.7207 10.6641 22.1406C10.6641 22.5606 10.3223 22.9023 9.90234 22.9023C9.48241 22.9023 9.14062 22.5606 9.14062 22.1406C9.14062 21.7207 9.48241 21.3789 9.90234 21.3789Z" />
        <path d="M18.3828 22.1406C18.3828 23.4006 19.408 24.4258 20.668 24.4258C21.928 24.4258 22.9531 23.4006 22.9531 22.1406C22.9531 20.8806 21.928 19.8555 20.668 19.8555C19.408 19.8555 18.3828 20.8806 18.3828 22.1406ZM20.668 21.3789C21.0879 21.3789 21.4297 21.7207 21.4297 22.1406C21.4297 22.5606 21.0879 22.9023 20.668 22.9023C20.248 22.9023 19.9062 22.5606 19.9062 22.1406C19.9062 21.7207 20.248 21.3789 20.668 21.3789Z" />
    </symbol>

    <symbol id = "icon-telegram-white" viewBox="0 0 26 22" >
        <path d="M10.2019 14.4459L9.77186 20.4952C10.3872 20.4952 10.6537 20.2309 10.9733 19.9135L13.8582 17.1564L19.836 21.5341C20.9324 22.1451 21.7048 21.8234 22.0005 20.5255L25.9244 2.13921L25.9254 2.13812C26.2732 0.517455 25.3394 -0.116295 24.2712 0.281288L1.20703 9.11154C-0.367057 9.72254 -0.343224 10.6 0.939443 10.9976L6.83603 12.8317L20.5326 4.26146C21.1772 3.83462 21.7633 4.07079 21.2812 4.49762L10.2019 14.4459Z" fill="#FFFFFF"/>
    </symbol>

    <symbol id = "icon-left-arrow"  viewBox="0 0 11 19">
        <path d="M-5.38418e-07 9.50003C-5.53302e-07 9.84055 0.132051 10.181 0.3956 10.4406L8.69309 18.6102C9.22091 19.1299 10.0767 19.1299 10.6043 18.6102C11.1319 18.0907 11.1319 17.2483 10.6043 16.7286L3.26222 9.50003L10.604 2.27143C11.1316 1.75174 11.1316 0.909399 10.604 0.389959C10.0764 -0.129986 9.22065 -0.129986 8.69283 0.389959L0.395343 8.55942C0.131752 8.81916 -5.23538e-07 9.15964 -5.38418e-07 9.50003Z"/>
    </symbol>

    <symbol id = "icon-right-arrow"  viewBox="0 0 11 19">
        <path d="M11 9.49997C11 9.15945 10.8679 8.81897 10.6044 8.55936L2.30691 0.389769C1.77909 -0.129923 0.923317 -0.129923 0.395707 0.389769C-0.131902 0.909252 -0.131902 1.75168 0.395707 2.27141L7.73778 9.49997L0.395964 16.7286C-0.131645 17.2483 -0.131645 18.0906 0.395964 18.61C0.923574 19.13 1.77935 19.13 2.30717 18.61L10.6047 10.4406C10.8682 10.1808 11 9.84036 11 9.49997Z"/>
    </symbol>
    
    <symbol>
   
    </symbol>
</svg>